<svg viewBox="0 0 800 500" xmlns="http://www.w3.org/2000/svg" role="img" aria-label="Превью лендинга Aurora">
  <defs>
    <linearGradient id="aurora" x1="0" y1="0" x2="1" y2="1">
      <stop offset="0" stop-color="#ff5d3b"/>
      <stop offset="1" stop-color="#ffb020"/>
    </linearGradient>
  </defs>
  <rect width="800" height="500" fill="#ffffff"/>
  <rect width="800" height="44" fill="#f3ece1"/>
  <circle cx="26" cy="22" r="6" fill="#ff5d3b"/>
  <circle cx="48" cy="22" r="6" fill="#ffb020"/>
  <circle cx="70" cy="22" r="6" fill="#14b8a6"/>
  <rect x="110" y="13" width="560" height="18" rx="9" fill="#e7ddcf"/>
  <rect x="40" y="74" width="720" height="250" rx="18" fill="url(#aurora)"/>
  <rect x="80" y="128" width="380" height="28" rx="9" fill="#ffffff" opacity="0.96"/>
  <rect x="80" y="168" width="300" height="28" rx="9" fill="#ffffff" opacity="0.96"/>
  <rect x="80" y="216" width="150" height="42" rx="21" fill="#ffffff"/>
  <rect x="250" y="225" width="120" height="24" rx="12" fill="#ffffff" opacity="0.55"/>
  <rect x="40" y="350" width="220" height="110" rx="14" fill="#f4f5f7"/>
  <rect x="290" y="350" width="220" height="110" rx="14" fill="#f4f5f7"/>
  <rect x="540" y="350" width="220" height="110" rx="14" fill="#f4f5f7"/>
  <circle cx="74" cy="386" r="15" fill="#ff5d3b" opacity="0.9"/>
  <circle cx="324" cy="386" r="15" fill="#ffb020" opacity="0.9"/>
  <circle cx="574" cy="386" r="15" fill="#ff7a3b" opacity="0.9"/>
  <rect x="102" y="380" width="120" height="12" rx="6" fill="#d9dde3"/>
  <rect x="352" y="380" width="120" height="12" rx="6" fill="#d9dde3"/>
  <rect x="602" y="380" width="120" height="12" rx="6" fill="#d9dde3"/>
  <rect x="62" y="414" width="176" height="10" rx="5" fill="#e9ecf1"/>
  <rect x="312" y="414" width="176" height="10" rx="5" fill="#e9ecf1"/>
  <rect x="562" y="414" width="176" height="10" rx="5" fill="#e9ecf1"/>
  <rect x="62" y="432" width="120" height="10" rx="5" fill="#e9ecf1"/>
  <rect x="312" y="432" width="120" height="10" rx="5" fill="#e9ecf1"/>
  <rect x="562" y="432" width="120" height="10" rx="5" fill="#e9ecf1"/>
</svg>
