<svg viewBox="0 0 800 500" xmlns="http://www.w3.org/2000/svg" role="img" aria-label="Превью интернет-магазина Market">
  <defs>
    <linearGradient id="market" x1="0" y1="0" x2="1" y2="1">
      <stop offset="0" stop-color="#14b8a6"/>
      <stop offset="1" stop-color="#8b5cff"/>
    </linearGradient>
  </defs>
  <rect width="800" height="500" fill="#ffffff"/>
  <rect width="800" height="44" fill="#f3ece1"/>
  <circle cx="26" cy="22" r="6" fill="#ff5d3b"/>
  <circle cx="48" cy="22" r="6" fill="#ffb020"/>
  <circle cx="70" cy="22" r="6" fill="#14b8a6"/>
  <rect x="110" y="13" width="560" height="18" rx="9" fill="#e7ddcf"/>
  <rect x="40" y="64" width="110" height="20" rx="6" fill="#241f33"/>
  <rect x="300" y="62" width="320" height="26" rx="13" fill="#f1f3f6"/>
  <rect x="316" y="71" width="150" height="8" rx="4" fill="#cfd3da"/>
  <circle cx="700" cy="74" r="15" fill="#14b8a6" opacity="0.9"/>
  <g>
    <rect x="40"  y="108" width="224" height="166" rx="12" fill="#ffffff" stroke="#ececf2"/>
    <rect x="40"  y="108" width="224" height="92"  rx="12" fill="url(#market)" opacity="0.88"/>
    <rect x="60"  y="214" width="120" height="12" rx="6" fill="#2a2433"/>
    <rect x="60"  y="236" width="70"  height="12" rx="6" fill="#14b8a6"/>
    <rect x="196" y="230" width="48"  height="24" rx="12" fill="#14b8a6"/>
  </g>
  <g>
    <rect x="288" y="108" width="224" height="166" rx="12" fill="#ffffff" stroke="#ececf2"/>
    <rect x="288" y="108" width="224" height="92"  rx="12" fill="url(#market)" opacity="0.70"/>
    <rect x="308" y="214" width="120" height="12" rx="6" fill="#2a2433"/>
    <rect x="308" y="236" width="70"  height="12" rx="6" fill="#14b8a6"/>
    <rect x="444" y="230" width="48"  height="24" rx="12" fill="#14b8a6"/>
  </g>
  <g>
    <rect x="536" y="108" width="224" height="166" rx="12" fill="#ffffff" stroke="#ececf2"/>
    <rect x="536" y="108" width="224" height="92"  rx="12" fill="url(#market)" opacity="0.80"/>
    <rect x="556" y="214" width="120" height="12" rx="6" fill="#2a2433"/>
    <rect x="556" y="236" width="70"  height="12" rx="6" fill="#14b8a6"/>
    <rect x="692" y="230" width="48"  height="24" rx="12" fill="#14b8a6"/>
  </g>
  <g>
    <rect x="40"  y="296" width="224" height="166" rx="12" fill="#ffffff" stroke="#ececf2"/>
    <rect x="40"  y="296" width="224" height="92"  rx="12" fill="url(#market)" opacity="0.62"/>
    <rect x="60"  y="402" width="120" height="12" rx="6" fill="#2a2433"/>
    <rect x="60"  y="424" width="70"  height="12" rx="6" fill="#14b8a6"/>
    <rect x="196" y="418" width="48"  height="24" rx="12" fill="#14b8a6"/>
  </g>
  <g>
    <rect x="288" y="296" width="224" height="166" rx="12" fill="#ffffff" stroke="#ececf2"/>
    <rect x="288" y="296" width="224" height="92"  rx="12" fill="url(#market)" opacity="0.92"/>
    <rect x="308" y="402" width="120" height="12" rx="6" fill="#2a2433"/>
    <rect x="308" y="424" width="70"  height="12" rx="6" fill="#14b8a6"/>
    <rect x="444" y="418" width="48"  height="24" rx="12" fill="#14b8a6"/>
  </g>
  <g>
    <rect x="536" y="296" width="224" height="166" rx="12" fill="#ffffff" stroke="#ececf2"/>
    <rect x="536" y="296" width="224" height="92"  rx="12" fill="url(#market)" opacity="0.75"/>
    <rect x="556" y="402" width="120" height="12" rx="6" fill="#2a2433"/>
    <rect x="556" y="424" width="70"  height="12" rx="6" fill="#14b8a6"/>
    <rect x="692" y="418" width="48"  height="24" rx="12" fill="#14b8a6"/>
  </g>
</svg>
