<svg viewBox="0 0 800 500" xmlns="http://www.w3.org/2000/svg" role="img" aria-label="Превью портфолио Studio">
  <defs>
    <linearGradient id="studio" x1="0" y1="0" x2="1" y2="1">
      <stop offset="0" stop-color="#8b5cff"/>
      <stop offset="1" stop-color="#ff5d3b"/>
    </linearGradient>
  </defs>
  <rect width="800" height="500" fill="#ffffff"/>
  <rect width="800" height="44" fill="#f3ece1"/>
  <circle cx="26" cy="22" r="6" fill="#ff5d3b"/>
  <circle cx="48" cy="22" r="6" fill="#ffb020"/>
  <circle cx="70" cy="22" r="6" fill="#14b8a6"/>
  <rect x="110" y="13" width="560" height="18" rx="9" fill="#e7ddcf"/>
  <rect x="40" y="66" width="130" height="20" rx="6" fill="#241f33"/>
  <rect x="560" y="70" width="44" height="12" rx="6" fill="#cfd3da"/>
  <rect x="620" y="70" width="44" height="12" rx="6" fill="#cfd3da"/>
  <rect x="680" y="70" width="44" height="12" rx="6" fill="#cfd3da"/>
  <rect x="40"  y="110" width="168" height="170" rx="12" fill="url(#studio)" opacity="0.95"/>
  <rect x="224" y="110" width="168" height="120" rx="12" fill="url(#studio)" opacity="0.70"/>
  <rect x="408" y="110" width="168" height="150" rx="12" fill="url(#studio)" opacity="0.85"/>
  <rect x="592" y="110" width="168" height="110" rx="12" fill="url(#studio)" opacity="0.60"/>
  <rect x="40"  y="296" width="168" height="120" rx="12" fill="url(#studio)" opacity="0.65"/>
  <rect x="224" y="246" width="168" height="170" rx="12" fill="url(#studio)" opacity="0.90"/>
  <rect x="408" y="276" width="168" height="140" rx="12" fill="url(#studio)" opacity="0.72"/>
  <rect x="592" y="236" width="168" height="180" rx="12" fill="url(#studio)" opacity="0.80"/>
  <rect x="40" y="440" width="150" height="12" rx="6" fill="#d9dde3"/>
  <rect x="610" y="440" width="150" height="12" rx="6" fill="#d9dde3"/>
</svg>
