<svg viewBox="0 0 800 500" xmlns="http://www.w3.org/2000/svg" role="img" aria-label="Превью SaaS-сайта Pulse">
  <defs>
    <linearGradient id="pulse" x1="0" y1="0" x2="1" y2="1">
      <stop offset="0" stop-color="#ff5d3b"/>
      <stop offset="1" stop-color="#8b5cff"/>
    </linearGradient>
  </defs>
  <rect width="800" height="500" fill="#ffffff"/>
  <rect width="800" height="44" fill="#f3ece1"/>
  <circle cx="26" cy="22" r="6" fill="#ff5d3b"/>
  <circle cx="48" cy="22" r="6" fill="#ffb020"/>
  <circle cx="70" cy="22" r="6" fill="#14b8a6"/>
  <rect x="110" y="13" width="560" height="18" rx="9" fill="#e7ddcf"/>
  <rect x="40" y="64" width="120" height="20" rx="6" fill="#241f33"/>
  <rect x="470" y="68" width="50" height="12" rx="6" fill="#cfd3da"/>
  <rect x="534" y="68" width="50" height="12" rx="6" fill="#cfd3da"/>
  <rect x="640" y="60" width="120" height="30" rx="15" fill="url(#pulse)"/>
  <rect x="250" y="112" width="300" height="22" rx="11" fill="#241f33"/>
  <rect x="320" y="146" width="160" height="12" rx="6" fill="#dfe2e8"/>
  <!-- left plan -->
  <rect x="40" y="190" width="218" height="250" rx="16" fill="#ffffff" stroke="#ececf2"/>
  <rect x="64" y="214" width="80" height="12" rx="6" fill="#9aa1ad"/>
  <rect x="64" y="240" width="120" height="26" rx="8" fill="#241f33"/>
  <rect x="64" y="296" width="150" height="10" rx="5" fill="#e9ecf1"/>
  <rect x="64" y="320" width="150" height="10" rx="5" fill="#e9ecf1"/>
  <rect x="64" y="344" width="120" height="10" rx="5" fill="#e9ecf1"/>
  <rect x="64" y="392" width="170" height="32" rx="16" fill="#eceef2"/>
  <!-- middle highlighted plan -->
  <rect x="291" y="170" width="218" height="290" rx="16" fill="url(#pulse)"/>
  <rect x="315" y="198" width="80" height="12" rx="6" fill="#ffffff" opacity="0.8"/>
  <rect x="315" y="224" width="130" height="30" rx="8" fill="#ffffff"/>
  <rect x="315" y="288" width="150" height="10" rx="5" fill="#ffffff" opacity="0.85"/>
  <rect x="315" y="312" width="150" height="10" rx="5" fill="#ffffff" opacity="0.85"/>
  <rect x="315" y="336" width="120" height="10" rx="5" fill="#ffffff" opacity="0.85"/>
  <rect x="315" y="360" width="140" height="10" rx="5" fill="#ffffff" opacity="0.85"/>
  <rect x="315" y="406" width="170" height="34" rx="17" fill="#ffffff"/>
  <!-- right plan -->
  <rect x="542" y="190" width="218" height="250" rx="16" fill="#ffffff" stroke="#ececf2"/>
  <rect x="566" y="214" width="80" height="12" rx="6" fill="#9aa1ad"/>
  <rect x="566" y="240" width="120" height="26" rx="8" fill="#241f33"/>
  <rect x="566" y="296" width="150" height="10" rx="5" fill="#e9ecf1"/>
  <rect x="566" y="320" width="150" height="10" rx="5" fill="#e9ecf1"/>
  <rect x="566" y="344" width="120" height="10" rx="5" fill="#e9ecf1"/>
  <rect x="566" y="392" width="170" height="32" rx="16" fill="#eceef2"/>
</svg>
